# xmcd
#
# Track frame offsets: 
#        150
#        19384
#        37315
#        62549
#        77921
#        100694
#        120261
#        151519
#        182099
#        206448
#        239284
#        259236
#        294710
#
# Disc length: 3945 seconds
#
# Revision: 0
# Processed by: cddbd v1.5.2PL0 Copyright (c) Steve Scherf et al.
# Submitted via: ExactAudioCopy v0.99pb3
#
DISCID=ac0f670d
DTITLE=Erykah Badu - New Amerykah Part One (4th World War)
DYEAR=2008
DGENRE=Hip-Hop
TTITLE0=Amerykahn Promise
TTITLE1=The Healer
TTITLE2=Me
TTITLE3=My People
TTITLE4=Soldier
TTITLE5=The Cell
TTITLE6=Twinkle
TTITLE7=Master Teacher
TTITLE8=That Hump
TTITLE9=Telephone
TTITLE10=Real Thang
TTITLE11=Honey
TTITLE12=Data
EXTD=
EXTT0=
EXTT1=
EXTT2=
EXTT3=
EXTT4=
EXTT5=
EXTT6=
EXTT7=
EXTT8=
EXTT9=
EXTT10=
EXTT11=
EXTT12=
PLAYORDER=
